<?xml version="1.0" ?><svg id="Layer_1" style="enable-background:new 0 0 512 512;" version="1.1" viewBox="0 0 512 512" xml:space="preserve" xmlns="http://www.w3.org/2000/svg" xmlns:xlink="http://www.w3.org/1999/xlink"><style type="text/css">
	.st0{fill:#F4C532;}
	.st1{fill:#FFFFFF;}
	.st2{fill:#BD1F34;}
	.st3{fill:#5172B8;}
	.st4{fill:#518E40;}
</style><g id="XMLID_1_"><rect class="st0" height="298.7" id="XMLID_13_" width="512" y="106.7"/><rect class="st1" height="224" id="XMLID_12_" width="512" y="181.3"/><rect class="st2" height="149.3" id="XMLID_11_" width="512" y="256"/><rect class="st3" height="74.7" id="XMLID_10_" width="512" y="330.7"/><polygon class="st4" id="XMLID_9_" points="0,106.7 0,405.3 248.9,256  "/><path class="st1" d="M151.8,256c0,37.1-30.1,67.2-67.2,67.2c-37.1,0-67.2-30.1-67.2-67.2v0   c0-37.1,30.1-67.2,67.2-67.2C121.7,188.8,151.8,218.8,151.8,256L151.8,256z" id="XMLID_8_"/><path class="st4" d="M181.7,256c0,37.1-30.1,67.2-67.2,67.2c-37.1,0-67.2-30.1-67.2-67.2v0   c0-37.1,30.1-67.2,67.2-67.2C151.6,188.8,181.7,218.8,181.7,256L181.7,256z" id="XMLID_7_"/><polygon class="st1" id="XMLID_6_" points="87.7,300.3 96.8,300.3 99.6,291.7 102.4,300.3 111.4,300.3 104.1,305.6 106.9,314.2    99.6,308.9 92.2,314.2 95,305.6  "/><polygon class="st1" id="XMLID_5_" points="87.7,204.1 96.8,204.1 99.6,195.5 102.4,204.1 111.4,204.1 104.1,209.4 106.9,218    99.6,212.7 92.2,218 95,209.4  "/><polygon class="st1" id="XMLID_4_" points="87.7,236.1 96.8,236.1 99.6,227.5 102.4,236.1 111.4,236.1 104.1,241.4 106.9,250    99.6,244.7 92.2,250 95,241.4  "/><polygon class="st1" id="XMLID_3_" points="87.7,268.2 96.8,268.2 99.6,259.6 102.4,268.2 111.4,268.2 104.1,273.5 106.9,282.1    99.6,276.8 92.2,282.1 95,273.5  "/></g></svg>